<svg xmlns="http://www.w3.org/2000/svg" viewBox="0 0 128 128" width="128" height="128">
  <rect width="128" height="128" fill="white"/>
  <!-- Shape 0: Ellipse -->
  <ellipse cx="53.81" cy="67.99" rx="36.06" ry="20.68" fill="rgb(155,155,155)" transform="rotate(-30.70 53.81 67.99)"/>
  <!-- Shape 1: Ellipse -->
  <ellipse cx="86.72" cy="54.26" rx="13.68" ry="7.50" fill="rgb(144,144,144)" transform="rotate(-65.59 86.72 54.26)"/>
  <!-- Shape 2: Circle -->
  <circle cx="78.71" cy="23.90" r="11.29" fill="rgb(147,147,147)"/>
  <!-- Shape 3: Triangle -->
  <polygon points="88.13,19.19 76.93,33.75 118.63,54.12" fill="rgb(50,50,50)"/>
  <!-- Shape 4: Triangle -->
  <polygon points="87.45,24.69 103.57,45.46 73.03,35.81" fill="rgb(125,125,125)"/>
  <!-- Shape 5: Ellipse -->
  <ellipse cx="56.46" cy="48.43" rx="20.07" ry="4.74" fill="rgb(119,119,119)" transform="rotate(-14.24 56.46 48.43)"/>
  <!-- Shape 6: Triangle -->
  <polygon points="17.48,81.01 42.68,91.24 12.59,106.98" fill="rgb(113,113,113)"/>
  <!-- Shape 7: Circle -->
  <circle cx="80.30" cy="24.42" r="1.46" fill="rgb(0,0,0)"/>
  <!-- Shape 8: Ellipse -->
  <ellipse cx="56.91" cy="102.18" rx="13.70" ry="6.91" fill="rgb(69,69,69)" transform="rotate(44.60 56.91 102.18)"/>
  <!-- Shape 9: Circle -->
  <circle cx="68.53" cy="22.20" r="2.36" fill="rgb(108,108,108)"/>
  <!-- Shape 10: Ellipse -->
  <ellipse cx="59.78" cy="72.11" rx="0.01" ry="0.01" fill="rgb(254,254,254)" transform="rotate(70.90 59.78 72.11)"/>
  <!-- Shape 11: Triangle -->
  <polygon points="18.58,82.17 25.52,66.19 37.28,60.46" fill="rgb(86,86,86)"/>
  <!-- Shape 12: Circle -->
  <circle cx="16.42" cy="99.72" r="2.14" fill="rgb(0,0,0)"/>
  <!-- Shape 13: Ellipse -->
  <ellipse cx="48.93" cy="98.85" rx="7.84" ry="2.71" fill="rgb(14,14,14)" transform="rotate(-15.99 48.93 98.85)"/>
  <!-- Shape 14: Triangle -->
  <polygon points="65.74,114.93 61.55,104.50 76.22,108.47" fill="rgb(6,6,6)"/>
  <!-- Shape 15: Circle -->
  <circle cx="79.68" cy="49.73" r="0.12" fill="rgb(7,7,7)"/>
  <!-- Shape 16: Ellipse -->
  <ellipse cx="34.16" cy="57.17" rx="9.29" ry="1.86" fill="rgb(88,88,88)" transform="rotate(-48.55 34.16 57.17)"/>
  <!-- Shape 17: Triangle -->
  <polygon points="72.90,42.94 86.97,46.05 81.75,46.91" fill="rgb(4,4,4)"/>
  <!-- Shape 18: Circle -->
  <circle cx="86.11" cy="41.41" r="1.75" fill="rgb(85,85,85)"/>
  <!-- Shape 19: Ellipse -->
  <ellipse cx="53.35" cy="78.37" rx="15.15" ry="1.46" fill="rgb(48,48,48)" transform="rotate(-28.97 53.35 78.37)"/>
</svg>