<svg xmlns="http://www.w3.org/2000/svg" viewBox="0 0 128 128" width="128" height="128">
  <rect width="128" height="128" fill="white"/>
  <!-- Shape 0: Ellipse -->
  <ellipse cx="53.61" cy="67.89" rx="20.67" ry="36.46" fill="rgb(128,128,128)" transform="rotate(58.67 53.61 67.89)"/>
  <!-- Shape 1: Ellipse -->
  <ellipse cx="88.29" cy="52.30" rx="6.60" ry="11.72" fill="rgb(144,144,144)" transform="rotate(-167.24 88.29 52.30)"/>
  <!-- Shape 2: Circle -->
  <circle cx="78.57" cy="24.13" r="11.16" fill="rgb(160,160,160)"/>
  <!-- Shape 3: Triangle -->
  <polygon points="87.75,19.30 79.27,35.13 118.19,54.20" fill="rgb(53,53,53)"/>
  <!-- Shape 4: Triangle -->
  <polygon points="80.37,17.27 103.46,45.53 73.15,36.16" fill="rgb(118,118,118)"/>
  <!-- Shape 5: Ellipse -->
  <ellipse cx="54.10" cy="65.45" rx="27.88" ry="9.71" fill="rgb(172,172,172)" transform="rotate(-29.70 54.10 65.45)"/>
  <!-- Shape 6: Triangle -->
  <polygon points="41.59,91.41 17.35,81.47 13.58,106.45" fill="rgb(110,110,110)"/>
  <!-- Shape 7: Circle -->
  <circle cx="80.58" cy="24.73" r="0.99" fill="rgb(0,0,0)"/>
  <!-- Shape 8: Ellipse -->
  <ellipse cx="57.73" cy="104.21" rx="15.28" ry="4.63" fill="rgb(21,21,21)" transform="rotate(38.80 57.73 104.21)"/>
  <!-- Shape 9: Circle -->
  <circle cx="68.80" cy="22.56" r="2.68" fill="rgb(114,114,114)"/>
  <!-- Shape 10: Ellipse -->
  <ellipse cx="78.30" cy="51.00" rx="0.02" ry="0.23" fill="rgb(254,254,254)" transform="rotate(-18.25 78.30 51.00)"/>
  <!-- Shape 11: Triangle -->
  <polygon points="43.68,48.60 29.90,60.79 37.40,51.65" fill="rgb(0,0,0)"/>
  <!-- Shape 12: Circle -->
  <circle cx="16.67" cy="99.53" r="2.15" fill="rgb(0,0,0)"/>
  <!-- Shape 13: Ellipse -->
  <ellipse cx="45.56" cy="99.82" rx="4.22" ry="1.98" fill="rgb(0,0,0)" transform="rotate(-11.08 45.56 99.82)"/>
  <!-- Shape 14: Triangle -->
  <polygon points="69.43,110.62 65.85,105.27 76.69,108.50" fill="rgb(0,0,0)"/>
  <!-- Shape 15: Circle -->
  <circle cx="83.54" cy="67.64" r="0.00" fill="rgb(7,7,7)"/>
  <!-- Shape 16: Ellipse -->
  <ellipse cx="54.51" cy="45.56" rx="11.23" ry="0.52" fill="rgb(0,0,0)" transform="rotate(-15.22 54.51 45.56)"/>
  <!-- Shape 17: Triangle -->
  <polygon points="69.51,42.50 85.23,45.96 85.56,47.81" fill="rgb(0,0,0)"/>
  <!-- Shape 18: Circle -->
  <circle cx="86.08" cy="32.01" r="0.56" fill="rgb(213,213,213)"/>
  <!-- Shape 19: Ellipse -->
  <ellipse cx="79.88" cy="66.86" rx="0.60" ry="0.53" fill="rgb(196,196,196)" transform="rotate(-28.19 79.88 66.86)"/>
  <!-- Shape 20: Triangle -->
  <polygon points="26.45,46.80 29.00,42.81 27.58,43.71" fill="rgb(251,251,251)"/>
  <!-- Shape 21: Circle -->
  <circle cx="85.68" cy="41.63" r="1.14" fill="rgb(14,14,14)"/>
  <!-- Shape 22: Ellipse -->
  <ellipse cx="85.84" cy="65.11" rx="2.02" ry="0.70" fill="rgb(92,92,92)" transform="rotate(-36.49 85.84 65.11)"/>
  <!-- Shape 23: Circle -->
  <circle cx="57.60" cy="102.14" r="7.29" fill="rgb(53,53,53)"/>
</svg>