<svg xmlns="http://www.w3.org/2000/svg" viewBox="0 0 128 128" width="128" height="128">
  <rect width="128" height="128" fill="white"/>
  <!-- Shape 0: Ellipse -->
  <ellipse cx="52.14" cy="71.71" rx="16.29" ry="21.32" fill="rgb(159,159,159)" transform="rotate(8.38 52.14 71.71)"/>
  <!-- Shape 1: Ellipse -->
  <ellipse cx="56.02" cy="56.75" rx="1.39" ry="2.81" fill="rgb(3,3,3)" transform="rotate(39.52 56.02 56.75)"/>
  <!-- Shape 2: Circle -->
  <circle cx="80.66" cy="32.50" r="19.10" fill="rgb(218,218,218)"/>
  <!-- Shape 3: Triangle -->
  <polygon points="87.21,18.38 83.41,36.59 117.60,53.36" fill="rgb(11,11,11)"/>
  <!-- Shape 4: Triangle -->
  <polygon points="80.59,17.03 112.60,48.81 72.15,35.32" fill="rgb(116,116,116)"/>
  <!-- Shape 5: Ellipse -->
  <ellipse cx="55.70" cy="65.42" rx="35.03" ry="20.74" fill="rgb(147,147,147)" transform="rotate(-24.67 55.70 65.42)"/>
  <!-- Shape 6: Triangle -->
  <polygon points="19.70,75.40 43.36,91.59 12.14,106.38" fill="rgb(106,106,106)"/>
  <!-- Shape 7: Circle -->
  <circle cx="82.22" cy="25.89" r="0.66" fill="rgb(0,0,0)"/>
  <!-- Shape 8: Ellipse -->
  <ellipse cx="63.06" cy="107.50" rx="13.35" ry="2.38" fill="rgb(51,51,51)" transform="rotate(8.10 63.06 107.50)"/>
  <!-- Shape 9: Triangle -->
  <polygon points="97.97,36.41 98.71,38.73 103.82,43.31" fill="rgb(2,2,2)"/>
  <!-- Shape 10: Triangle -->
  <polygon points="54.34,52.30 72.61,48.34 69.96,48.52" fill="rgb(6,6,6)"/>
  <!-- Shape 11: Ellipse -->
  <ellipse cx="85.86" cy="44.96" rx="1.49" ry="2.42" fill="rgb(52,52,52)" transform="rotate(-151.62 85.86 44.96)"/>
  <!-- Shape 12: Ellipse -->
  <ellipse cx="54.52" cy="77.44" rx="13.41" ry="1.39" fill="rgb(31,31,31)" transform="rotate(-27.08 54.52 77.44)"/>
  <!-- Shape 13: Triangle -->
  <polygon points="55.05,91.51 68.14,108.53 45.19,101.47" fill="rgb(38,38,38)"/>
  <!-- Shape 14: Ellipse -->
  <ellipse cx="78.65" cy="45.92" rx="4.39" ry="2.28" fill="rgb(9,9,9)" transform="rotate(21.63 78.65 45.92)"/>
  <!-- Shape 15: Ellipse -->
  <ellipse cx="66.46" cy="43.22" rx="1.06" ry="6.82" fill="rgb(48,48,48)" transform="rotate(-93.26 66.46 43.22)"/>
  <!-- Shape 16: Triangle -->
  <polygon points="48.22,91.88 40.77,101.90 50.47,101.49" fill="rgb(0,0,0)"/>
  <!-- Shape 17: Triangle -->
  <polygon points="59.60,95.49 62.43,103.41 65.85,100.80" fill="rgb(0,0,0)"/>
  <!-- Shape 18: Triangle -->
  <polygon points="53.96,109.12 70.00,109.26 69.54,115.67" fill="rgb(0,0,0)"/>
</svg>