<svg xmlns="http://www.w3.org/2000/svg" viewBox="0 0 1060 162">
  <rect width="1060" height="162" fill="white"/>
  <rect x="3.5" y="3.5" width="129" height="129" rx="1" fill="none" stroke="#ddd" stroke-width="0.5"/>
  <svg x="4" y="4" width="128" height="128" viewBox="0 0 128 128">
    <rect width="128" height="128" fill="white"/>
  
  <ellipse cx="53.53" cy="67.35" rx="21.21" ry="35.10" fill="rgb(120,120,120)" transform="rotate(58.88 53.53 67.35)"/>
  
  <ellipse cx="76.36" cy="59.45" rx="11.38" ry="22.71" fill="rgb(149,149,149)" transform="rotate(-127.27 76.36 59.45)"/>
  
  <circle cx="78.33" cy="24.10" r="11.20" fill="rgb(153,153,153)"/>
  
  <polygon points="87.75,19.49 78.33,34.33 116.64,52.12" fill="rgb(54,54,54)"/>
  
  <polygon points="80.04,19.06 114.59,52.09 72.93,35.57" fill="rgb(110,110,110)"/>
  
  <ellipse cx="46.10" cy="68.47" rx="17.29" ry="10.44" fill="rgb(171,171,171)" transform="rotate(-45.23 46.10 68.47)"/>
  
  <polygon points="40.08,92.56 18.60,78.87 12.80,106.33" fill="rgb(104,104,104)"/>
  
  <circle cx="80.52" cy="24.73" r="1.04" fill="rgb(7,7,7)"/>
  
  <ellipse cx="58.27" cy="103.11" rx="15.45" ry="6.76" fill="rgb(58,58,58)" transform="rotate(36.46 58.27 103.11)"/>
  </svg>
  <text x="68.0" y="147" text-anchor="middle" font-family="system-ui, Helvetica, Arial, sans-serif" font-size="9" font-weight="500" fill="#444">Optimized</text>
  <text x="68.0" y="158" text-anchor="middle" font-family="system-ui, Helvetica, Arial, sans-serif" font-size="7.5" fill="#888">9 shapes</text>
  <rect x="135.5" y="3.5" width="129" height="129" rx="1" fill="none" stroke="#ddd" stroke-width="0.5"/>
  <svg x="136" y="4" width="128" height="128" viewBox="0 0 128 128">
    <rect width="128" height="128" fill="white"/>
  
  <ellipse cx="53.67" cy="67.35" rx="21.16" ry="35.44" fill="rgb(118,118,118)" transform="rotate(59.09 53.67 67.35)"/>
  
  <ellipse cx="85.18" cy="54.96" rx="8.27" ry="14.73" fill="rgb(142,142,142)" transform="rotate(-150.77 85.18 54.96)"/>
  
  <circle cx="78.55" cy="24.12" r="11.14" fill="rgb(160,160,160)"/>
  
  <polygon points="87.75,19.30 79.43,35.24 118.11,54.13" fill="rgb(51,51,51)"/>
  
  <polygon points="80.35,17.28 103.77,45.94 73.12,36.19" fill="rgb(119,119,119)"/>
  
  <ellipse cx="52.03" cy="65.93" rx="27.87" ry="10.42" fill="rgb(169,169,169)" transform="rotate(-27.08 52.03 65.93)"/>
  
  <polygon points="38.06,93.52 18.35,79.55 12.89,106.23" fill="rgb(101,101,101)"/>
  
  <circle cx="80.54" cy="24.77" r="1.03" fill="rgb(1,1,1)"/>
  
  <ellipse cx="58.24" cy="103.11" rx="15.43" ry="6.71" fill="rgb(52,52,52)" transform="rotate(36.60 58.24 103.11)"/>
  
  <circle cx="68.83" cy="22.56" r="2.70" fill="rgb(115,115,115)"/>
  
  <ellipse cx="76.99" cy="51.13" rx="1.49" ry="2.38" fill="rgb(197,197,197)" transform="rotate(-52.48 76.99 51.13)"/>
  </svg>
  <text x="200.0" y="147" text-anchor="middle" font-family="system-ui, Helvetica, Arial, sans-serif" font-size="9" font-weight="500" fill="#444">Round 2</text>
  <text x="200.0" y="158" text-anchor="middle" font-family="system-ui, Helvetica, Arial, sans-serif" font-size="7.5" fill="#888">11 shapes</text>
  <rect x="267.5" y="3.5" width="129" height="129" rx="1" fill="none" stroke="#ddd" stroke-width="0.5"/>
  <svg x="268" y="4" width="128" height="128" viewBox="0 0 128 128">
    <rect width="128" height="128" fill="white"/>
  
  <ellipse cx="53.80" cy="67.54" rx="20.86" ry="35.94" fill="rgb(120,120,120)" transform="rotate(58.74 53.80 67.54)"/>
  
  <ellipse cx="85.25" cy="55.04" rx="8.18" ry="14.75" fill="rgb(143,143,143)" transform="rotate(-150.73 85.25 55.04)"/>
  
  <circle cx="78.60" cy="24.15" r="11.19" fill="rgb(161,161,161)"/>
  
  <polygon points="87.77,19.31 78.88,35.09 118.20,54.18" fill="rgb(56,56,56)"/>
  
  <polygon points="80.29,17.29 103.95,46.20 73.11,36.17" fill="rgb(120,120,120)"/>
  
  <ellipse cx="52.24" cy="65.82" rx="28.35" ry="10.34" fill="rgb(168,168,168)" transform="rotate(-27.16 52.24 65.82)"/>
  
  <polygon points="37.90,93.54 18.23,79.46 12.89,106.76" fill="rgb(115,115,115)"/>
  
  <circle cx="80.59" cy="24.62" r="0.97" fill="rgb(0,0,0)"/>
  
  <ellipse cx="58.25" cy="103.10" rx="15.40" ry="6.76" fill="rgb(54,54,54)" transform="rotate(36.53 58.25 103.10)"/>
  
  <circle cx="68.83" cy="22.54" r="2.74" fill="rgb(117,117,117)"/>
  
  <ellipse cx="77.53" cy="50.84" rx="0.47" ry="1.25" fill="rgb(250,250,250)" transform="rotate(-47.31 77.53 50.84)"/>
  
  <polygon points="45.24,47.32 30.87,59.66 35.82,53.04" fill="rgb(4,4,4)"/>
  
  <circle cx="16.83" cy="99.45" r="2.20" fill="rgb(20,20,20)"/>
  </svg>
  <text x="332.0" y="147" text-anchor="middle" font-family="system-ui, Helvetica, Arial, sans-serif" font-size="9" font-weight="500" fill="#444">Round 4</text>
  <text x="332.0" y="158" text-anchor="middle" font-family="system-ui, Helvetica, Arial, sans-serif" font-size="7.5" fill="#888">13 shapes</text>
  <rect x="399.5" y="3.5" width="129" height="129" rx="1" fill="none" stroke="#ddd" stroke-width="0.5"/>
  <svg x="400" y="4" width="128" height="128" viewBox="0 0 128 128">
    <rect width="128" height="128" fill="white"/>
  
  <ellipse cx="53.83" cy="67.53" rx="20.80" ry="36.03" fill="rgb(120,120,120)" transform="rotate(58.89 53.83 67.53)"/>
  
  <ellipse cx="85.26" cy="55.04" rx="8.18" ry="14.73" fill="rgb(143,143,143)" transform="rotate(-150.67 85.26 55.04)"/>
  
  <circle cx="78.60" cy="24.15" r="11.20" fill="rgb(161,161,161)"/>
  
  <polygon points="87.77,19.32 78.83,35.07 118.21,54.19" fill="rgb(56,56,56)"/>
  
  <polygon points="80.33,17.28 103.99,46.25 73.13,36.17" fill="rgb(120,120,120)"/>
  
  <ellipse cx="52.23" cy="65.81" rx="28.39" ry="10.33" fill="rgb(168,168,168)" transform="rotate(-27.17 52.23 65.81)"/>
  
  <polygon points="37.93,93.52 18.13,79.77 12.87,106.78" fill="rgb(114,114,114)"/>
  
  <circle cx="80.61" cy="24.59" r="0.97" fill="rgb(0,0,0)"/>
  
  <ellipse cx="58.13" cy="102.83" rx="15.19" ry="6.65" fill="rgb(56,56,56)" transform="rotate(40.65 58.13 102.83)"/>
  
  <circle cx="68.83" cy="22.54" r="2.75" fill="rgb(117,117,117)"/>
  
  <ellipse cx="77.56" cy="50.87" rx="0.37" ry="1.13" fill="rgb(254,254,254)" transform="rotate(-52.03 77.56 50.87)"/>
  
  <polygon points="47.26,46.76 31.59,58.20 38.42,50.92" fill="rgb(0,0,0)"/>
  
  <circle cx="16.81" cy="99.44" r="2.14" fill="rgb(1,1,1)"/>
  
  <ellipse cx="48.19" cy="98.78" rx="7.12" ry="2.46" fill="rgb(10,10,10)" transform="rotate(-16.97 48.19 98.78)"/>
  
  <polygon points="65.02,109.52 74.74,106.82 77.00,109.43" fill="rgb(46,46,46)"/>
  </svg>
  <text x="464.0" y="147" text-anchor="middle" font-family="system-ui, Helvetica, Arial, sans-serif" font-size="9" font-weight="500" fill="#444">Round 6</text>
  <text x="464.0" y="158" text-anchor="middle" font-family="system-ui, Helvetica, Arial, sans-serif" font-size="7.5" fill="#888">15 shapes</text>
  <rect x="531.5" y="3.5" width="129" height="129" rx="1" fill="none" stroke="#ddd" stroke-width="0.5"/>
  <svg x="532" y="4" width="128" height="128" viewBox="0 0 128 128">
    <rect width="128" height="128" fill="white"/>
  
  <ellipse cx="53.86" cy="67.59" rx="20.71" ry="36.17" fill="rgb(121,121,121)" transform="rotate(58.91 53.86 67.59)"/>
  
  <ellipse cx="85.29" cy="55.03" rx="8.15" ry="14.70" fill="rgb(144,144,144)" transform="rotate(-150.74 85.29 55.03)"/>
  
  <circle cx="78.60" cy="24.15" r="11.20" fill="rgb(161,161,161)"/>
  
  <polygon points="87.77,19.32 78.82,35.07 118.22,54.20" fill="rgb(55,55,55)"/>
  
  <polygon points="80.35,17.27 104.01,46.25 73.13,36.18" fill="rgb(120,120,120)"/>
  
  <ellipse cx="52.24" cy="65.81" rx="28.36" ry="10.32" fill="rgb(169,169,169)" transform="rotate(-27.15 52.24 65.81)"/>
  
  <polygon points="37.91,93.51 18.13,79.81 12.87,106.78" fill="rgb(113,113,113)"/>
  
  <circle cx="80.61" cy="24.58" r="0.97" fill="rgb(0,0,0)"/>
  
  <ellipse cx="57.91" cy="102.70" rx="15.12" ry="6.59" fill="rgb(56,56,56)" transform="rotate(41.99 57.91 102.70)"/>
  
  <circle cx="68.83" cy="22.54" r="2.74" fill="rgb(117,117,117)"/>
  
  <ellipse cx="77.58" cy="50.89" rx="0.39" ry="1.11" fill="rgb(254,254,254)" transform="rotate(-52.31 77.58 50.89)"/>
  
  <polygon points="43.75,48.49 30.31,60.09 37.86,51.27" fill="rgb(0,0,0)"/>
  
  <circle cx="16.81" cy="99.44" r="2.13" fill="rgb(0,0,0)"/>
  
  <ellipse cx="48.25" cy="98.77" rx="7.11" ry="2.48" fill="rgb(2,2,2)" transform="rotate(-17.11 48.25 98.77)"/>
  
  <polygon points="69.36,110.61 69.42,106.31 76.74,108.51" fill="rgb(4,4,4)"/>
  
  <circle cx="81.70" cy="60.75" r="0.18" fill="rgb(87,87,87)"/>
  
  <ellipse cx="48.23" cy="47.32" rx="4.65" ry="0.90" fill="rgb(45,45,45)" transform="rotate(-18.27 48.23 47.32)"/>
  </svg>
  <text x="596.0" y="147" text-anchor="middle" font-family="system-ui, Helvetica, Arial, sans-serif" font-size="9" font-weight="500" fill="#444">Round 8</text>
  <text x="596.0" y="158" text-anchor="middle" font-family="system-ui, Helvetica, Arial, sans-serif" font-size="7.5" fill="#888">17 shapes</text>
  <rect x="663.5" y="3.5" width="129" height="129" rx="1" fill="none" stroke="#ddd" stroke-width="0.5"/>
  <svg x="664" y="4" width="128" height="128" viewBox="0 0 128 128">
    <rect width="128" height="128" fill="white"/>
  
  <ellipse cx="53.78" cy="67.67" rx="20.69" ry="36.13" fill="rgb(126,126,126)" transform="rotate(59.01 53.78 67.67)"/>
  
  <ellipse cx="85.38" cy="55.15" rx="8.03" ry="14.58" fill="rgb(145,145,145)" transform="rotate(-150.21 85.38 55.15)"/>
  
  <circle cx="78.59" cy="24.15" r="11.18" fill="rgb(159,159,159)"/>
  
  <polygon points="87.76,19.32 79.04,35.21 118.20,54.17" fill="rgb(53,53,53)"/>
  
  <polygon points="80.27,17.52 103.30,45.42 73.15,35.95" fill="rgb(114,114,114)"/>
  
  <ellipse cx="53.99" cy="65.49" rx="27.71" ry="9.77" fill="rgb(172,172,172)" transform="rotate(-29.63 53.99 65.49)"/>
  
  <polygon points="37.87,93.52 18.12,79.84 12.90,106.75" fill="rgb(113,113,113)"/>
  
  <circle cx="80.71" cy="24.67" r="0.91" fill="rgb(0,0,0)"/>
  
  <ellipse cx="57.92" cy="102.72" rx="15.11" ry="6.56" fill="rgb(55,55,55)" transform="rotate(41.97 57.92 102.72)"/>
  
  <circle cx="68.81" cy="22.54" r="2.70" fill="rgb(115,115,115)"/>
  
  <ellipse cx="78.05" cy="50.97" rx="0.15" ry="0.61" fill="rgb(254,254,254)" transform="rotate(-38.10 78.05 50.97)"/>
  
  <polygon points="44.00,48.39 30.32,60.14 37.82,51.30" fill="rgb(0,0,0)"/>
  
  <circle cx="16.80" cy="99.44" r="2.12" fill="rgb(0,0,0)"/>
  
  <ellipse cx="48.15" cy="98.78" rx="7.00" ry="2.45" fill="rgb(0,0,0)" transform="rotate(-17.18 48.15 98.78)"/>
  
  <polygon points="69.40,110.55 69.43,106.35 76.69,108.51" fill="rgb(0,0,0)"/>
  
  <circle cx="82.26" cy="58.83" r="0.01" fill="rgb(84,84,84)"/>
  
  <ellipse cx="54.57" cy="45.54" rx="11.16" ry="0.52" fill="rgb(4,4,4)" transform="rotate(-15.08 54.57 45.54)"/>
  
  <polygon points="70.13,42.40 87.25,46.81 84.19,47.68" fill="rgb(10,10,10)"/>
  
  <circle cx="87.64" cy="35.87" r="6.64" fill="rgb(126,126,126)"/>
  </svg>
  <text x="728.0" y="147" text-anchor="middle" font-family="system-ui, Helvetica, Arial, sans-serif" font-size="9" font-weight="500" fill="#444">Round 10</text>
  <text x="728.0" y="158" text-anchor="middle" font-family="system-ui, Helvetica, Arial, sans-serif" font-size="7.5" fill="#888">19 shapes</text>
  <rect x="795.5" y="3.5" width="129" height="129" rx="1" fill="none" stroke="#ddd" stroke-width="0.5"/>
  <svg x="796" y="4" width="128" height="128" viewBox="0 0 128 128">
    <rect width="128" height="128" fill="white"/>
  
  <ellipse cx="53.69" cy="67.81" rx="20.57" ry="36.53" fill="rgb(127,127,127)" transform="rotate(58.94 53.69 67.81)"/>
  
  <ellipse cx="89.09" cy="50.41" rx="6.08" ry="11.34" fill="rgb(144,144,144)" transform="rotate(-176.93 89.09 50.41)"/>
  
  <circle cx="78.58" cy="24.14" r="11.18" fill="rgb(159,159,159)"/>
  
  <polygon points="87.76,19.31 79.68,35.42 118.19,54.18" fill="rgb(53,53,53)"/>
  
  <polygon points="80.45,17.32 103.48,45.48 73.16,35.88" fill="rgb(111,111,111)"/>
  
  <ellipse cx="54.07" cy="65.47" rx="27.87" ry="9.73" fill="rgb(171,171,171)" transform="rotate(-29.69 54.07 65.47)"/>
  
  <polygon points="37.57,93.50 17.32,81.47 13.48,106.70" fill="rgb(113,113,113)"/>
  
  <circle cx="80.76" cy="24.66" r="0.88" fill="rgb(0,0,0)"/>
  
  <ellipse cx="57.93" cy="102.73" rx="15.11" ry="6.56" fill="rgb(54,54,54)" transform="rotate(41.97 57.93 102.73)"/>
  
  <circle cx="68.81" cy="22.55" r="2.70" fill="rgb(115,115,115)"/>
  
  <ellipse cx="78.29" cy="50.98" rx="0.04" ry="0.30" fill="rgb(254,254,254)" transform="rotate(-24.53 78.29 50.98)"/>
  
  <polygon points="43.67,48.82 30.07,60.42 37.90,51.21" fill="rgb(0,0,0)"/>
  
  <circle cx="16.70" cy="99.52" r="2.18" fill="rgb(0,0,0)"/>
  
  <ellipse cx="48.11" cy="98.79" rx="6.96" ry="2.45" fill="rgb(0,0,0)" transform="rotate(-17.26 48.11 98.79)"/>
  
  <polygon points="69.42,110.54 69.44,106.37 76.68,108.51" fill="rgb(0,0,0)"/>
  
  <circle cx="89.54" cy="62.09" r="0.00" fill="rgb(19,19,19)"/>
  
  <ellipse cx="54.40" cy="45.55" rx="11.35" ry="0.53" fill="rgb(0,0,0)" transform="rotate(-15.24 54.40 45.55)"/>
  
  <polygon points="69.54,42.48 85.34,46.02 85.48,47.81" fill="rgb(1,1,1)"/>
  
  <circle cx="84.47" cy="35.40" r="5.11" fill="rgb(143,143,143)"/>
  
  <ellipse cx="83.53" cy="64.67" rx="5.95" ry="2.83" fill="rgb(153,153,153)" transform="rotate(-30.81 83.53 64.67)"/>
  
  <polygon points="25.70,44.99 28.72,44.97 27.46,45.02" fill="rgb(154,154,154)"/>
  </svg>
  <text x="860.0" y="147" text-anchor="middle" font-family="system-ui, Helvetica, Arial, sans-serif" font-size="9" font-weight="500" fill="#444">Round 12</text>
  <text x="860.0" y="158" text-anchor="middle" font-family="system-ui, Helvetica, Arial, sans-serif" font-size="7.5" fill="#888">21 shapes</text>
  <rect x="927.5" y="3.5" width="129" height="129" rx="1" fill="none" stroke="#ddd" stroke-width="0.5"/>
  <svg x="928" y="4" width="128" height="128" viewBox="0 0 128 128">
    <rect width="128" height="128" fill="white"/>
  
  <ellipse cx="53.61" cy="67.89" rx="20.67" ry="36.46" fill="rgb(128,128,128)" transform="rotate(58.67 53.61 67.89)"/>
  
  <ellipse cx="88.29" cy="52.30" rx="6.60" ry="11.72" fill="rgb(144,144,144)" transform="rotate(-167.24 88.29 52.30)"/>
  
  <circle cx="78.57" cy="24.13" r="11.16" fill="rgb(160,160,160)"/>
  
  <polygon points="87.75,19.30 79.27,35.13 118.19,54.20" fill="rgb(53,53,53)"/>
  
  <polygon points="80.37,17.27 103.46,45.53 73.15,36.16" fill="rgb(118,118,118)"/>
  
  <ellipse cx="54.10" cy="65.45" rx="27.88" ry="9.71" fill="rgb(172,172,172)" transform="rotate(-29.70 54.10 65.45)"/>
  
  <polygon points="41.59,91.41 17.35,81.47 13.58,106.45" fill="rgb(110,110,110)"/>
  
  <circle cx="80.58" cy="24.73" r="0.99" fill="rgb(0,0,0)"/>
  
  <ellipse cx="57.73" cy="104.21" rx="15.28" ry="4.63" fill="rgb(21,21,21)" transform="rotate(38.80 57.73 104.21)"/>
  
  <circle cx="68.80" cy="22.56" r="2.68" fill="rgb(114,114,114)"/>
  
  <ellipse cx="78.30" cy="51.00" rx="0.02" ry="0.23" fill="rgb(254,254,254)" transform="rotate(-18.25 78.30 51.00)"/>
  
  <polygon points="43.68,48.60 29.90,60.79 37.40,51.65" fill="rgb(0,0,0)"/>
  
  <circle cx="16.67" cy="99.53" r="2.15" fill="rgb(0,0,0)"/>
  
  <ellipse cx="45.56" cy="99.82" rx="4.22" ry="1.98" fill="rgb(0,0,0)" transform="rotate(-11.08 45.56 99.82)"/>
  
  <polygon points="69.43,110.62 65.85,105.27 76.69,108.50" fill="rgb(0,0,0)"/>
  
  <circle cx="83.54" cy="67.64" r="0.00" fill="rgb(7,7,7)"/>
  
  <ellipse cx="54.51" cy="45.56" rx="11.23" ry="0.52" fill="rgb(0,0,0)" transform="rotate(-15.22 54.51 45.56)"/>
  
  <polygon points="69.51,42.50 85.23,45.96 85.56,47.81" fill="rgb(0,0,0)"/>
  
  <circle cx="86.08" cy="32.01" r="0.56" fill="rgb(213,213,213)"/>
  
  <ellipse cx="79.88" cy="66.86" rx="0.60" ry="0.53" fill="rgb(196,196,196)" transform="rotate(-28.19 79.88 66.86)"/>
  
  <polygon points="26.45,46.80 29.00,42.81 27.58,43.71" fill="rgb(251,251,251)"/>
  
  <circle cx="85.68" cy="41.63" r="1.14" fill="rgb(14,14,14)"/>
  
  <ellipse cx="85.84" cy="65.11" rx="2.02" ry="0.70" fill="rgb(92,92,92)" transform="rotate(-36.49 85.84 65.11)"/>
  
  <circle cx="57.60" cy="102.14" r="7.29" fill="rgb(53,53,53)"/>
  </svg>
  <text x="992.0" y="147" text-anchor="middle" font-family="system-ui, Helvetica, Arial, sans-serif" font-size="9" font-weight="500" fill="#444">Final</text>
  <text x="992.0" y="158" text-anchor="middle" font-family="system-ui, Helvetica, Arial, sans-serif" font-size="7.5" fill="#888">24 shapes</text>
</svg>