<svg xmlns="http://www.w3.org/2000/svg" viewBox="0 0 660 244">
  <rect width="660" height="244" fill="white"/>

  <!-- Stage 1: Initial geometry -->
  <rect x="9" y="9" width="202" height="202" rx="2" fill="none" stroke="#ddd" stroke-width="1"/>
  <svg x="10" y="10" width="200" height="200" viewBox="0 0 128 128">
    <rect width="128" height="128" fill="white"/>
    <ellipse cx="53.76" cy="70.40" rx="28.16" ry="35.84" fill="rgb(89,89,89)" transform="rotate(-17.19 53.76 70.40)"/>
    <ellipse cx="66.56" cy="44.80" rx="7.68" ry="19.20" fill="rgb(102,102,102)" transform="rotate(-11.46 66.56 44.80)"/>
    <circle cx="74.24" cy="23.04" r="10.24" fill="rgb(89,89,89)"/>
    <polygon points="79.36,19.20 79.36,28.16 112.64,25.60" fill="rgb(63,63,63)"/>
    <polygon points="79.36,28.16 112.64,25.60 83.20,35.84" fill="rgb(76,76,76)"/>
    <ellipse cx="48.64" cy="64.00" rx="23.04" ry="19.20" fill="rgb(76,76,76)" transform="rotate(-22.92 48.64 64.00)"/>
    <polygon points="23.04,66.56 32.00,61.44 15.36,76.80" fill="rgb(51,51,51)"/>
    <circle cx="76.80" cy="20.48" r="1.92" fill="rgb(12,12,12)"/>
    <ellipse cx="57.60" cy="112.64" rx="7.68" ry="5.12" fill="rgb(38,38,38)" transform="rotate(0.00 57.60 112.64)"/>
  </svg>
  <text x="110" y="228" text-anchor="middle" font-family="system-ui, Helvetica, Arial, sans-serif" font-size="12" fill="#555">Initial (9 shapes)</text>

  <!-- Stage 2: Gradient-optimized -->
  <rect x="229" y="9" width="202" height="202" rx="2" fill="none" stroke="#ddd" stroke-width="1"/>
  <svg x="230" y="10" width="200" height="200" viewBox="0 0 128 128">
    <rect width="128" height="128" fill="white"/>
    <ellipse cx="46.74" cy="72.60" rx="21.57" ry="20.61" fill="rgb(152,152,152)" transform="rotate(26.58 46.74 72.60)"/>
    <ellipse cx="71.45" cy="65.55" rx="31.75" ry="11.46" fill="rgb(144,144,144)" transform="rotate(-42.75 71.45 65.55)"/>
    <circle cx="78.43" cy="23.84" r="11.29" fill="rgb(148,148,148)"/>
    <polygon points="88.24,19.26 74.87,32.90 118.63,54.10" fill="rgb(64,64,64)"/>
    <polygon points="82.44,26.09 105.49,46.20 73.07,36.03" fill="rgb(131,131,131)"/>
    <ellipse cx="56.48" cy="51.46" rx="24.34" ry="7.71" fill="rgb(128,128,128)" transform="rotate(-14.89 56.48 51.46)"/>
    <polygon points="23.35,67.23 42.81,91.74 11.33,106.66" fill="rgb(111,111,111)"/>
    <circle cx="80.02" cy="24.19" r="1.32" fill="rgb(13,13,13)"/>
    <ellipse cx="58.21" cy="103.35" rx="15.57" ry="6.89" fill="rgb(61,61,61)" transform="rotate(36.62 58.21 103.35)"/>
  </svg>
  <text x="330" y="228" text-anchor="middle" font-family="system-ui, Helvetica, Arial, sans-serif" font-size="12" fill="#555">Optimized (9 shapes)</text>

  <!-- Stage 3: Greedy refinement -->
  <rect x="449" y="9" width="202" height="202" rx="2" fill="none" stroke="#ddd" stroke-width="1"/>
  <svg x="450" y="10" width="200" height="200" viewBox="0 0 128 128">
    <rect width="128" height="128" fill="white"/>
    <ellipse cx="53.83" cy="67.91" rx="36.09" ry="20.80" fill="rgb(155,155,155)" transform="rotate(-31.23 53.83 67.91)"/>
    <ellipse cx="86.92" cy="53.81" rx="13.74" ry="7.48" fill="rgb(145,145,145)" transform="rotate(-68.04 86.92 53.81)"/>
    <circle cx="78.56" cy="23.50" r="10.98" fill="rgb(151,151,151)"/>
    <polygon points="87.70,18.60 80.18,35.22 118.67,54.20" fill="rgb(62,62,62)"/>
    <polygon points="89.97,27.99 103.09,45.20 89.56,39.46" fill="rgb(131,131,131)"/>
    <ellipse cx="56.72" cy="48.35" rx="19.91" ry="4.69" fill="rgb(119,119,119)" transform="rotate(-13.79 56.72 48.35)"/>
    <polygon points="17.50,80.95 42.66,91.23 12.57,107.00" fill="rgb(113,113,113)"/>
    <circle cx="80.88" cy="18.75" r="1.14" fill="rgb(0,0,0)"/>
    <ellipse cx="57.77" cy="104.16" rx="15.38" ry="4.72" fill="rgb(20,20,20)" transform="rotate(40.82 57.77 104.16)"/>
    <circle cx="68.77" cy="22.27" r="2.66" fill="rgb(112,112,112)"/>
    <ellipse cx="58.60" cy="73.52" rx="0.00" ry="0.01" fill="rgb(254,254,254)" transform="rotate(49.87 58.60 73.52)"/>
    <polygon points="18.71,82.00 25.10,66.83 37.25,60.46" fill="rgb(85,85,85)"/>
    <circle cx="16.42" cy="99.72" r="2.14" fill="rgb(0,0,0)"/>
    <ellipse cx="49.25" cy="97.63" rx="8.76" ry="2.87" fill="rgb(53,53,53)" transform="rotate(-28.92 49.25 97.63)"/>
    <polygon points="69.38,111.12 66.20,105.61 76.75,108.85" fill="rgb(0,0,0)"/>
    <circle cx="85.35" cy="48.02" r="0.00" fill="rgb(0,0,0)"/>
    <ellipse cx="34.12" cy="57.21" rx="9.44" ry="1.81" fill="rgb(82,82,82)" transform="rotate(-48.77 34.12 57.21)"/>
    <polygon points="72.92,43.02 86.54,46.08 81.77,46.75" fill="rgb(0,0,0)"/>
    <circle cx="85.75" cy="40.87" r="1.09" fill="rgb(0,0,0)"/>
    <ellipse cx="51.31" cy="79.14" rx="12.87" ry="1.44" fill="rgb(42,42,42)" transform="rotate(-31.30 51.31 79.14)"/>
    <polygon points="25.24,42.91 27.50,40.67 26.04,41.31" fill="rgb(254,254,254)"/>
    <circle cx="80.53" cy="52.22" r="0.00" fill="rgb(0,0,0)"/>
    <ellipse cx="74.03" cy="63.07" rx="0.12" ry="0.05" fill="rgb(0,0,0)" transform="rotate(-50.92 74.03 63.07)"/>
    <polygon points="103.06,51.39 101.40,52.34 100.40,49.13" fill="rgb(254,254,254)"/>
    <circle cx="57.88" cy="102.94" r="7.34" fill="rgb(45,45,45)"/>
    <ellipse cx="78.44" cy="36.23" rx="7.88" ry="1.35" fill="rgb(106,106,106)" transform="rotate(-153.21 78.44 36.23)"/>
    <polygon points="83.09,26.58 79.66,22.85 78.85,24.84" fill="rgb(0,0,0)"/>
    <circle cx="70.50" cy="114.90" r="0.00" fill="rgb(0,0,0)"/>
    <ellipse cx="85.30" cy="33.31" rx="4.51" ry="3.72" fill="rgb(141,141,141)" transform="rotate(44.19 85.30 33.31)"/>
    <polygon points="35.16,55.37 34.08,60.00 32.95,57.61" fill="rgb(163,163,163)"/>
    <circle cx="88.86" cy="35.69" r="0.00" fill="rgb(246,246,246)"/>
    <ellipse cx="75.37" cy="66.71" rx="0.07" ry="0.07" fill="rgb(39,39,39)" transform="rotate(-82.66 75.37 66.71)"/>
    <polygon points="102.04,58.88 97.93,60.22 99.82,59.66" fill="rgb(241,241,241)"/>
    <circle cx="43.83" cy="56.31" r="0.43" fill="rgb(41,41,41)"/>
    <ellipse cx="63.13" cy="73.40" rx="3.02" ry="0.87" fill="rgb(24,24,24)" transform="rotate(-34.19 63.13 73.40)"/>
  </svg>
  <text x="550" y="228" text-anchor="middle" font-family="system-ui, Helvetica, Arial, sans-serif" font-size="12" fill="#555">Greedy refined (35 shapes)</text>
</svg>
